<svg width="21" height="21" viewBox="0 0 21 21" fill="none" xmlns="http://www.w3.org/2000/svg">
<g id="Group">
<path id="Vector" d="M10.1867 6.19754C9.45672 6.19754 8.32672 5.36754 7.13672 5.39754C5.56672 5.41754 4.12672 6.30754 3.31672 7.71754C1.68672 10.5475 2.89672 14.7275 4.48672 17.0275C5.26672 18.1475 6.18672 19.4075 7.40672 19.3675C8.57672 19.3175 9.01672 18.6075 10.4367 18.6075C11.8467 18.6075 12.2467 19.3675 13.4867 19.3375C14.7467 19.3175 15.5467 18.1975 16.3167 17.0675C17.2067 15.7675 17.5767 14.5075 17.5967 14.4375C17.5667 14.4275 15.1467 13.4975 15.1167 10.6975C15.0967 8.35754 17.0267 7.23754 17.1167 7.18754C16.0167 5.57754 14.3267 5.39754 13.7367 5.35754C12.1967 5.23754 10.9067 6.19754 10.1867 6.19754ZM12.7867 3.83754C13.4367 3.05754 13.8667 1.96754 13.7467 0.887543C12.8167 0.927543 11.6967 1.50754 11.0267 2.28754C10.4267 2.97754 9.90672 4.08754 10.0467 5.14754C11.0767 5.22754 12.1367 4.61754 12.7867 3.83754Z" fill="#CECECE"/>
</g>
</svg>
