<svg width="20" height="23" viewBox="0 0 20 23" fill="none" xmlns="http://www.w3.org/2000/svg">
<path d="M17 2.90039H16V1.90039C16 1.30039 15.6 0.900391 15 0.900391C14.4 0.900391 14 1.30039 14 1.90039V2.90039H6V1.90039C6 1.30039 5.6 0.900391 5 0.900391C4.4 0.900391 4 1.30039 4 1.90039V2.90039H3C1.3 2.90039 0 4.20039 0 5.90039V19.9004C0 21.6004 1.3 22.9004 3 22.9004H17C18.7 22.9004 20 21.6004 20 19.9004V5.90039C20 4.30039 18.7 2.90039 17 2.90039ZM5 18.9004C4.4 18.9004 4 18.5004 4 17.9004C4 17.3004 4.4 16.9004 5 16.9004C5.6 16.9004 6 17.3004 6 17.9004C6 18.5004 5.6 18.9004 5 18.9004ZM5 14.9004C4.4 14.9004 4 14.5004 4 13.9004C4 13.3004 4.4 12.9004 5 12.9004C5.6 12.9004 6 13.3004 6 13.9004C6 14.5004 5.6 14.9004 5 14.9004ZM10 18.9004C9.4 18.9004 9 18.5004 9 17.9004C9 17.3004 9.4 16.9004 10 16.9004C10.6 16.9004 11 17.3004 11 17.9004C11 18.5004 10.6 18.9004 10 18.9004ZM10 14.9004C9.4 14.9004 9 14.5004 9 13.9004C9 13.3004 9.4 12.9004 10 12.9004C10.6 12.9004 11 13.3004 11 13.9004C11 14.5004 10.6 14.9004 10 14.9004ZM15 18.9004C14.4 18.9004 14 18.5004 14 17.9004C14 17.3004 14.4 16.9004 15 16.9004C15.6 16.9004 16 17.3004 16 17.9004C16 18.5004 15.6 18.9004 15 18.9004ZM15 14.9004C14.4 14.9004 14 14.5004 14 13.9004C14 13.3004 14.4 12.9004 15 12.9004C15.6 12.9004 16 13.3004 16 13.9004C16 14.5004 15.6 14.9004 15 14.9004ZM18 8.90039H2V5.90039C2 5.30039 2.4 4.90039 3 4.90039H4V5.90039C4 6.50039 4.4 6.90039 5 6.90039C5.6 6.90039 6 6.50039 6 5.90039V4.90039H14V5.90039C14 6.50039 14.4 6.90039 15 6.90039C15.6 6.90039 16 6.50039 16 5.90039V4.90039H17C17.6 4.90039 18 5.30039 18 5.90039V8.90039Z" fill="black"/>
</svg>
