<svg width="16" height="17" viewBox="0 0 16 17" fill="none" xmlns="http://www.w3.org/2000/svg">
<g id="Group 1000003195">
<path id="Vector" d="M15.9088 8.36132C15.9088 7.77664 15.856 7.21718 15.758 6.6792H8.16992V9.76138L12.54 9.76232C12.3628 10.7878 11.7924 11.6621 10.9183 12.2449V14.2446H13.5197C15.0386 12.852 15.9088 10.7934 15.9088 8.36132Z" fill="#4285F4"/>
<path id="Vector_2" d="M10.9191 12.2462C10.195 12.7301 9.26248 13.0131 8.1716 13.0131C6.06432 13.0131 4.27668 11.6065 3.63648 9.71045H0.953125V11.7727C2.28255 14.386 5.01493 16.1793 8.1716 16.1793C10.3534 16.1793 12.1863 15.4685 13.5204 14.245L10.9191 12.2462Z" fill="#34A853"/>
<path id="Vector_3" d="M3.38336 8.17841C3.38336 7.64603 3.47293 7.1314 3.63604 6.64759V4.58533H0.952688C0.403005 5.66596 0.09375 6.88576 0.09375 8.17841C0.09375 9.47106 0.403948 10.6909 0.952688 11.7715L3.63604 9.70922C3.47293 9.22541 3.38336 8.71078 3.38336 8.17841Z" fill="#FABB05"/>
<path id="Vector_4" d="M8.1716 3.34544C9.36242 3.34544 10.4288 3.75173 11.2707 4.54563L13.576 2.26388C12.1759 0.972161 10.3505 0.179199 8.1716 0.179199C5.01587 0.179199 2.28255 1.97247 0.953125 4.58579L3.63648 6.64805C4.27668 4.75204 6.06432 3.34544 8.1716 3.34544Z" fill="#E94235"/>
</g>
</svg>
