<svg width="20" height="20" viewBox="0 0 20 20" fill="none" xmlns="http://www.w3.org/2000/svg">
<path id="Vector" d="M19.6546 8.225L10.6546 0.225C10.2546 -0.075 9.75464 -0.075 9.35464 0.225L0.35464 8.225C-0.0453601 8.625 -0.14536 9.225 0.25464 9.625C0.45464 9.825 0.75464 9.925 0.95464 9.925H1.95464V18.925C1.95464 19.525 2.35464 19.925 2.95464 19.925H16.9546C17.5546 19.925 17.9546 19.525 17.9546 18.925V9.925H18.9546C19.5546 9.925 19.9546 9.525 19.9546 8.925C19.9546 8.625 19.8546 8.425 19.6546 8.225ZM12.9546 17.925H6.95464V14.925C6.95464 13.225 8.25464 11.925 9.95464 11.925C11.6546 11.925 12.9546 13.225 12.9546 14.925V17.925Z" fill="white"/>
</svg>
