<svg width="20" height="20" viewBox="0 0 20 20" fill="none" xmlns="http://www.w3.org/2000/svg">
<path d="M19.66 8.25069L10.66 0.250688C10.4775 0.0903683 10.2429 0.00195313 10 0.00195312C9.75709 0.00195313 9.52249 0.0903683 9.34 0.250688L0.339997 8.25069C0.187033 8.386 0.0791648 8.5649 0.0308962 8.76334C-0.0173724 8.96178 -0.0037274 9.17023 0.0699968 9.36069C0.142515 9.54862 0.270102 9.71028 0.436046 9.82448C0.601991 9.93867 0.798556 10.0001 0.999997 10.0007H2V19.0007C2 19.2659 2.10535 19.5203 2.29289 19.7078C2.48043 19.8953 2.73478 20.0007 3 20.0007H17C17.2652 20.0007 17.5196 19.8953 17.7071 19.7078C17.8946 19.5203 18 19.2659 18 19.0007V10.0007H19C19.2014 10.0001 19.398 9.93867 19.5639 9.82448C19.7299 9.71028 19.8575 9.54862 19.93 9.36069C20.0037 9.17023 20.0174 8.96178 19.9691 8.76334C19.9208 8.5649 19.813 8.386 19.66 8.25069ZM11 18.0007H9V15.0007C9 14.7355 9.10535 14.4811 9.29289 14.2936C9.48043 14.106 9.73478 14.0007 10 14.0007C10.2652 14.0007 10.5196 14.106 10.7071 14.2936C10.8946 14.4811 11 14.7355 11 15.0007V18.0007ZM16 18.0007H13V15.0007C13 14.205 12.6839 13.442 12.1213 12.8794C11.5587 12.3168 10.7956 12.0007 10 12.0007C9.20435 12.0007 8.44129 12.3168 7.87868 12.8794C7.31607 13.442 7 14.205 7 15.0007V18.0007H4V10.0007H16V18.0007ZM3.63 8.00069L10 2.34069L16.37 8.00069H3.63Z" fill="black" fill-opacity="0.4"/>
</svg>
