<svg width="20" height="20" viewBox="0 0 20 20" fill="none" xmlns="http://www.w3.org/2000/svg">
<path d="M18.3461 3.25955C18.4494 3.36324 18.5075 3.50368 18.5075 3.65009C18.5075 3.79649 18.4494 3.93693 18.3461 4.04062L17.1922 5.19562L14.9795 2.98297L16.1334 1.82797C16.2371 1.72427 16.3778 1.66602 16.5245 1.66602C16.6712 1.66602 16.8119 1.72427 16.9156 1.82797L18.3461 3.25845V3.25955ZM16.41 5.97668L14.1974 3.76404L6.65998 11.3025C6.59909 11.3634 6.55325 11.4376 6.52612 11.5194L5.63553 14.19C5.61938 14.2387 5.61708 14.2909 5.6289 14.3408C5.64073 14.3908 5.6662 14.4364 5.70247 14.4727C5.73874 14.5089 5.78439 14.5344 5.8343 14.5462C5.88422 14.5581 5.93644 14.5558 5.98513 14.5396L8.65579 13.649C8.73739 13.6222 8.81163 13.5768 8.87263 13.5163L16.41 5.97668Z" fill="black" fill-opacity="0.6"/>
<path fill-rule="evenodd" clip-rule="evenodd" d="M2.30225 16.0478C2.30225 16.4879 2.47708 16.91 2.7883 17.2212C3.09951 17.5324 3.52161 17.7073 3.96173 17.7073H16.1313C16.5714 17.7073 16.9935 17.5324 17.3047 17.2212C17.6159 16.91 17.7908 16.4879 17.7908 16.0478V9.40984C17.7908 9.26313 17.7325 9.12244 17.6287 9.0187C17.525 8.91496 17.3843 8.85668 17.2376 8.85668C17.0909 8.85668 16.9502 8.91496 16.8464 9.0187C16.7427 9.12244 16.6844 9.26313 16.6844 9.40984V16.0478C16.6844 16.1945 16.6262 16.3352 16.5224 16.4389C16.4187 16.5427 16.278 16.6009 16.1313 16.6009H3.96173C3.81502 16.6009 3.67432 16.5427 3.57059 16.4389C3.46685 16.3352 3.40857 16.1945 3.40857 16.0478V3.87823C3.40857 3.73153 3.46685 3.59083 3.57059 3.48709C3.67432 3.38335 3.81502 3.32507 3.96173 3.32507H11.1528C11.2995 3.32507 11.4402 3.26679 11.544 3.16305C11.6477 3.05932 11.706 2.91862 11.706 2.77191C11.706 2.6252 11.6477 2.4845 11.544 2.38077C11.4402 2.27703 11.2995 2.21875 11.1528 2.21875H3.96173C3.52161 2.21875 3.09951 2.39359 2.7883 2.7048C2.47708 3.01601 2.30225 3.43811 2.30225 3.87823V16.0478Z" fill="black" fill-opacity="0.6"/>
</svg>
